<?xml version="1.0" encoding="UTF-8" standalone="no"?>
<!-- Created with Inkscape (http://www.inkscape.org/) -->

<svg
   width="64"
   height="64"
   id="svg2869"
   version="1.1"
   viewBox="0 0 64 64"
   xmlns="http://www.w3.org/2000/svg"
   xmlns:svg="http://www.w3.org/2000/svg"
   xmlns:rdf="http://www.w3.org/1999/02/22-rdf-syntax-ns#"
   xmlns:cc="http://creativecommons.org/ns#"
   xmlns:dc="http://purl.org/dc/elements/1.1/">
  <defs
     id="defs2871">
    <linearGradient
       id="linearGradient5">
      <stop
         style="stop-color:#ef2929;stop-opacity:1;"
         offset="0"
         id="stop19" />
      <stop
         style="stop-color:#ef2929;stop-opacity:0;"
         offset="1"
         id="stop20" />
    </linearGradient>
    <linearGradient
       id="swatch18">
      <stop
         style="stop-color:#ef2929;stop-opacity:1;"
         offset="0"
         id="stop18" />
    </linearGradient>
    <linearGradient
       id="swatch15">
      <stop
         style="stop-color:#3d0000;stop-opacity:1;"
         offset="0"
         id="stop15" />
    </linearGradient>
    <linearGradient
       id="linearGradient5-1">
      <stop
         style="stop-color:#ef2929;stop-opacity:1;"
         offset="0"
         id="stop5" />
      <stop
         style="stop-color:#ef2929;stop-opacity:0;"
         offset="1"
         id="stop6" />
    </linearGradient>
    <linearGradient
       id="linearGradient3836-9">
      <stop
         style="stop-color:#a40000;stop-opacity:1"
         offset="0"
         id="stop3838-8" />
      <stop
         style="stop-color:#ef2929;stop-opacity:1"
         offset="1"
         id="stop3840-1" />
    </linearGradient>
  </defs>
  <metadata
     id="metadata2874">
    <rdf:RDF>
      <cc:Work
         rdf:about="">
        <dc:format>image/svg+xml</dc:format>
        <dc:type
           rdf:resource="http://purl.org/dc/dcmitype/StillImage" />
        <dc:creator>
          <cc:Agent>
            <dc:title>[maxwxyz]</dc:title>
          </cc:Agent>
        </dc:creator>
        <dc:relation>https://www.freecad.org/wiki/index.php?title=Artwork</dc:relation>
        <dc:publisher>
          <cc:Agent>
            <dc:title>FreeCAD</dc:title>
          </cc:Agent>
        </dc:publisher>
        <dc:identifier>FreeCAD/src/</dc:identifier>
        <dc:rights>
          <cc:Agent>
            <dc:title>FreeCAD LGPL2+</dc:title>
          </cc:Agent>
        </dc:rights>
        <dc:date>2024</dc:date>
      </cc:Work>
    </rdf:RDF>
  </metadata>
  <g
     id="layer3"
     style="display:inline">
    <path
       style="fill:none;stroke:#0b1e23;stroke-width:1.5875;stroke-linecap:round;stroke-linejoin:round;stroke-miterlimit:4;stroke-dasharray:none;stroke-dashoffset:0;stroke-opacity:1"
       d="m 2.2465959,287.11119 c 1.8990416,-0.72108 3.7978384,-1.44207 5.6963853,-2.16296"
       id="path19"
       transform="matrix(3.7795276,0,0,3.7795276,-2.724644,-1067.7684)" />
    <path
       style="fill:none;stroke:#0b1e23;stroke-width:1.5875;stroke-linecap:round;stroke-linejoin:round;stroke-miterlimit:4;stroke-dasharray:none;stroke-dashoffset:0;stroke-opacity:1"
       d="m 16.178137,290.03296 c -2.745025,-1.69489 -5.490072,-3.3898 -8.2351559,-5.08474"
       id="path20"
       transform="matrix(3.7795276,0,0,3.7795276,-2.724644,-1067.7684)" />
    <path
       style="fill:none;stroke:#0b1e23;stroke-width:1.5875;stroke-linecap:round;stroke-linejoin:round;stroke-miterlimit:4;stroke-dasharray:none;stroke-dashoffset:0;stroke-opacity:1"
       d="m 11.837238,297.42596 c -0.883165,-0.53983 -1.766388,-1.0797 -2.6496933,-1.61962"
       id="path21"
       transform="matrix(3.7795276,0,0,3.7795276,-2.724644,-1067.7684)" />
    <path
       style="fill:none;stroke:#0b1e23;stroke-width:1.5875;stroke-linecap:round;stroke-linejoin:round;stroke-miterlimit:4;stroke-dasharray:none;stroke-dashoffset:0;stroke-opacity:1"
       d="m 5.4482578,297.22752 c 1.2470118,-0.473 2.4934384,-0.94577 3.7393042,-1.41834"
       id="path22"
       transform="matrix(3.7795276,0,0,3.7795276,-2.724644,-1067.7684)" />
    <path
       style="fill:none;stroke:#eeeeec;stroke-width:0.529167;stroke-linecap:round;stroke-linejoin:round;stroke-miterlimit:4;stroke-dasharray:none;stroke-dashoffset:0;stroke-opacity:1"
       d="m 2.2465959,287.11119 c 1.8990402,-0.72108 3.7978387,-1.44207 5.6963852,-2.16297"
       id="path4493"
       transform="matrix(3.7795276,0,0,3.7795276,-2.724644,-1067.7684)" />
    <path
       style="fill:none;stroke:#eeeeec;stroke-width:0.529167;stroke-linecap:round;stroke-linejoin:round;stroke-miterlimit:4;stroke-dasharray:none;stroke-dashoffset:0;stroke-opacity:1"
       d="m 16.178137,290.03296 c -2.745026,-1.69489 -5.490072,-3.3898 -8.2351559,-5.08473"
       id="path4497"
       transform="matrix(3.7795276,0,0,3.7795276,-2.724644,-1067.7684)" />
    <path
       style="fill:none;stroke:#eeeeec;stroke-width:0.529167;stroke-linecap:round;stroke-linejoin:round;stroke-miterlimit:4;stroke-dasharray:none;stroke-dashoffset:0;stroke-opacity:1"
       d="m 11.837238,297.42596 c -0.883165,-0.53983 -1.766388,-1.0797 -2.6496933,-1.61962"
       id="path4501"
       transform="matrix(3.7795276,0,0,3.7795276,-2.724644,-1067.7684)" />
    <path
       style="fill:none;stroke:#230b0b;stroke-width:1.5875;stroke-linecap:round;stroke-linejoin:round;stroke-miterlimit:4;stroke-dasharray:none;stroke-opacity:1"
       d="m 11.837238,297.42596 c 1.447222,-2.46477 2.894189,-4.9291 4.340899,-7.393"
       id="path24"
       transform="matrix(3.7795276,0,0,3.7795276,-2.724644,-1067.7684)" />
    <path
       style="fill:none;stroke:#eeeeec;stroke-width:0.529167;stroke-linecap:round;stroke-linejoin:round;stroke-miterlimit:4;stroke-dasharray:none;stroke-dashoffset:0;stroke-opacity:1"
       d="m 5.4482578,297.22752 c 1.2470118,-0.473 2.4934384,-0.94577 3.7393042,-1.41834"
       id="path4505"
       transform="matrix(3.7795276,0,0,3.7795276,-2.724644,-1067.7684)" />
    <path
       style="fill:none;stroke:#230b0b;stroke-width:1.5875;stroke-linecap:round;stroke-linejoin:round;stroke-miterlimit:4;stroke-dasharray:none;stroke-opacity:1"
       d="m 2.2465959,287.11119 c 1.0672176,3.3721 2.134438,6.74421 3.2016619,10.11633"
       id="path23"
       transform="matrix(3.7795276,0,0,3.7795276,-2.724644,-1067.7684)" />
    <path
       style="fill:none;stroke:#17230b;stroke-width:1.5875;stroke-linecap:round;stroke-linejoin:round;stroke-miterlimit:4;stroke-dasharray:none;stroke-opacity:1"
       d="m 7.9429811,284.94822 c 0.414832,3.62008 0.8296904,7.24039 1.2445809,10.86097"
       id="path25"
       transform="matrix(3.7795276,0,0,3.7795276,-2.724644,-1067.7684)" />
    <path
       style="fill:none;stroke:#ef2929;stroke-width:0.529167;stroke-linecap:round;stroke-linejoin:round;stroke-miterlimit:4;stroke-dasharray:none;stroke-opacity:1"
       d="m 2.2465959,287.11119 c 1.0672176,3.3721 2.134438,6.74421 3.2016619,10.11633"
       id="path4485"
       transform="matrix(3.7795276,0,0,3.7795276,-2.724644,-1067.7684)" />
    <path
       style="fill:none;stroke:#ef2929;stroke-width:0.529167;stroke-linecap:round;stroke-linejoin:round;stroke-miterlimit:4;stroke-dasharray:none;stroke-opacity:1"
       d="m 11.837238,297.42596 c 1.447222,-2.46477 2.894189,-4.9291 4.340899,-7.393"
       id="path4489"
       transform="matrix(3.7795276,0,0,3.7795276,-2.724644,-1067.7684)" />
    <path
       style="fill:none;stroke:#8ae234;stroke-width:0.529167;stroke-linecap:round;stroke-linejoin:round;stroke-miterlimit:4;stroke-dasharray:none;stroke-opacity:1"
       d="m 7.9429811,284.94822 c 0.414832,3.62008 0.8296904,7.24039 1.2445809,10.86097"
       id="path4509"
       transform="matrix(3.7795276,0,0,3.7795276,-2.724644,-1067.7684)" />
  </g>
</svg>
