<?xml version="1.0" encoding="UTF-8" standalone="no"?>
<!-- Created with Inkscape (http://www.inkscape.org/) -->

<svg
   width="64"
   height="64"
   id="svg2869"
   version="1.1"
   viewBox="0 0 64 64"
   xmlns="http://www.w3.org/2000/svg"
   xmlns:svg="http://www.w3.org/2000/svg"
   xmlns:rdf="http://www.w3.org/1999/02/22-rdf-syntax-ns#"
   xmlns:cc="http://creativecommons.org/ns#"
   xmlns:dc="http://purl.org/dc/elements/1.1/">
  <defs
     id="defs2871">
    <linearGradient
       id="linearGradient5">
      <stop
         style="stop-color:#ef2929;stop-opacity:1;"
         offset="0"
         id="stop19" />
      <stop
         style="stop-color:#ef2929;stop-opacity:0;"
         offset="1"
         id="stop20" />
    </linearGradient>
    <linearGradient
       id="swatch18">
      <stop
         style="stop-color:#ef2929;stop-opacity:1;"
         offset="0"
         id="stop18" />
    </linearGradient>
    <linearGradient
       id="swatch15">
      <stop
         style="stop-color:#3d0000;stop-opacity:1;"
         offset="0"
         id="stop15" />
    </linearGradient>
    <linearGradient
       id="linearGradient5-1">
      <stop
         style="stop-color:#ef2929;stop-opacity:1;"
         offset="0"
         id="stop5" />
      <stop
         style="stop-color:#ef2929;stop-opacity:0;"
         offset="1"
         id="stop6" />
    </linearGradient>
    <linearGradient
       id="linearGradient3836-9">
      <stop
         style="stop-color:#a40000;stop-opacity:1"
         offset="0"
         id="stop3838-8" />
      <stop
         style="stop-color:#ef2929;stop-opacity:1"
         offset="1"
         id="stop3840-1" />
    </linearGradient>
  </defs>
  <metadata
     id="metadata2874">
    <rdf:RDF>
      <cc:Work
         rdf:about="">
        <dc:format>image/svg+xml</dc:format>
        <dc:type
           rdf:resource="http://purl.org/dc/dcmitype/StillImage" />
        <dc:creator>
          <cc:Agent>
            <dc:title>[maxwxyz]</dc:title>
          </cc:Agent>
        </dc:creator>
        <dc:relation>https://www.freecad.org/wiki/index.php?title=Artwork</dc:relation>
        <dc:publisher>
          <cc:Agent>
            <dc:title>FreeCAD</dc:title>
          </cc:Agent>
        </dc:publisher>
        <dc:identifier>FreeCAD/src/</dc:identifier>
        <dc:rights>
          <cc:Agent>
            <dc:title>FreeCAD LGPL2+</dc:title>
          </cc:Agent>
        </dc:rights>
        <dc:date>2024</dc:date>
      </cc:Work>
    </rdf:RDF>
  </metadata>
  <g
     id="layer3"
     style="display:inline">
    <path
       style="fill:none;stroke:#0c1522;stroke-width:6;stroke-linecap:round;stroke-linejoin:round;stroke-dasharray:none;stroke-opacity:1"
       d="M 4.8997108,60 V 32 c 0,-8.124999 6.1249982,-28 25.0000002,-28 18.875002,0 12.35335,13.377955 29.200578,35.788973 V 60 Z"
       id="path43" />
    <path
       style="fill:none;stroke:#729fcf;stroke-width:2;stroke-linecap:round;stroke-linejoin:round;stroke-dasharray:none;stroke-opacity:1"
       d="M 4.8997108,60 V 32 c 0,-8.124999 6.1249982,-28 25.0000002,-28 18.875002,0 12.35335,13.377955 29.200578,35.788973 V 60 Z"
       id="path42" />
    <path
       style="fill:none;stroke:#230b0b;stroke-width:1.5875;stroke-linecap:round;stroke-linejoin:round;stroke-miterlimit:4;stroke-dasharray:none;stroke-opacity:1"
       d="m 1.0583334,288.53331 c 1.5485319,2.4696 3.0969679,4.93905 4.6452996,7.40833"
       id="path44"
       transform="matrix(3.7795276,0,0,3.7795276,0.8997104,-1058.5196)" />
    <path
       style="fill:none;stroke:#230b0b;stroke-width:1.5875;stroke-linecap:round;stroke-linejoin:round;stroke-miterlimit:4;stroke-dasharray:none;stroke-opacity:1"
       d="m 10.54671,295.94164 c 1.617735,-1.78287 3.235142,-3.56538 4.852193,-5.3475"
       id="path45"
       transform="matrix(3.7795276,0,0,3.7795276,0.8997104,-1058.5196)" />
    <path
       style="fill:none;stroke:#17230b;stroke-width:1.5875;stroke-linecap:round;stroke-linejoin:round;stroke-miterlimit:4;stroke-dasharray:none;stroke-opacity:1"
       d="m 10.070122,281.59345 c -0.5344471,4.78239 -1.0689322,9.56512 -1.6034553,14.34819"
       id="path46"
       transform="matrix(3.7795276,0,0,3.7795276,0.8997104,-1058.5196)" />
    <path
       style="fill:none;stroke:#17230b;stroke-width:1.5875;stroke-linecap:round;stroke-linejoin:round;stroke-miterlimit:4;stroke-dasharray:none;stroke-opacity:1"
       d="m 3.3784003,283.44504 c 1.282948,4.16541 2.5659329,8.33094 3.8489579,12.4966"
       id="path47"
       transform="matrix(3.7795276,0,0,3.7795276,0.8997104,-1058.5196)" />
    <path
       style="fill:none;stroke:#17230b;stroke-width:1.5875;stroke-linecap:round;stroke-linejoin:round;stroke-miterlimit:4;stroke-dasharray:none;stroke-opacity:1"
       d="m 12.978011,286.53655 c -1.108005,3.13479 -2.216098,6.26983 -3.3242695,9.40509"
       id="path48"
       transform="matrix(3.7795276,0,0,3.7795276,0.8997104,-1058.5196)" />
    <path
       style="fill:none;stroke:#ef2929;stroke-width:0.529167;stroke-linecap:round;stroke-linejoin:round;stroke-miterlimit:4;stroke-dasharray:none;stroke-opacity:1"
       d="m 1.0583334,288.53331 c 1.5485319,2.4696 3.0969679,4.93905 4.6452996,7.40833"
       id="path4485"
       transform="matrix(3.7795276,0,0,3.7795276,0.8997104,-1058.5196)" />
    <path
       style="fill:none;stroke:#ef2929;stroke-width:0.529167;stroke-linecap:round;stroke-linejoin:round;stroke-miterlimit:4;stroke-dasharray:none;stroke-opacity:1"
       d="m 10.54671,295.94164 c 1.617735,-1.78287 3.235142,-3.56538 4.852193,-5.3475"
       id="path4489"
       transform="matrix(3.7795276,0,0,3.7795276,0.8997104,-1058.5196)" />
    <path
       style="fill:none;stroke:#8ae234;stroke-width:0.529167;stroke-linecap:round;stroke-linejoin:round;stroke-miterlimit:4;stroke-dasharray:none;stroke-opacity:1"
       d="m 10.070122,281.59345 c -0.5344471,4.78239 -1.0689322,9.56512 -1.6034553,14.34819"
       id="path4509"
       transform="matrix(3.7795276,0,0,3.7795276,0.8997104,-1058.5196)" />
    <path
       style="fill:none;stroke:#8ae234;stroke-width:0.529167;stroke-linecap:round;stroke-linejoin:round;stroke-miterlimit:4;stroke-dasharray:none;stroke-opacity:1"
       d="m 3.3784003,283.44504 c 1.282948,4.16541 2.5659329,8.33094 3.8489579,12.4966"
       id="path4649"
       transform="matrix(3.7795276,0,0,3.7795276,0.8997104,-1058.5196)" />
    <path
       style="fill:none;stroke:#8ae234;stroke-width:0.529167;stroke-linecap:round;stroke-linejoin:round;stroke-miterlimit:4;stroke-dasharray:none;stroke-opacity:1"
       d="m 12.978011,286.53655 c -1.108005,3.13479 -2.216098,6.26983 -3.3242695,9.40509"
       id="path4653"
       transform="matrix(3.7795276,0,0,3.7795276,0.8997104,-1058.5196)" />
  </g>
</svg>
