<?xml version="1.0" encoding="UTF-8" standalone="no"?>
<!-- Created with Inkscape (http://www.inkscape.org/) -->

<svg
   width="64"
   height="64"
   id="svg2869"
   version="1.1"
   viewBox="0 0 64 64"
   xmlns:xlink="http://www.w3.org/1999/xlink"
   xmlns="http://www.w3.org/2000/svg"
   xmlns:svg="http://www.w3.org/2000/svg"
   xmlns:rdf="http://www.w3.org/1999/02/22-rdf-syntax-ns#"
   xmlns:cc="http://creativecommons.org/ns#"
   xmlns:dc="http://purl.org/dc/elements/1.1/">
  <defs
     id="defs2871">
    <linearGradient
       id="linearGradient229">
      <stop
         style="stop-color:#729fcf;stop-opacity:1"
         offset="0"
         id="stop228" />
      <stop
         style="stop-color:#3465a4;stop-opacity:1"
         offset="0.32844615"
         id="stop230" />
      <stop
         style="stop-color:#729fcf;stop-opacity:1"
         offset="1"
         id="stop229" />
    </linearGradient>
    <linearGradient
       id="linearGradient218">
      <stop
         style="stop-color:#729fcf;stop-opacity:1"
         offset="0"
         id="stop218" />
      <stop
         style="stop-color:#3465a4;stop-opacity:1"
         offset="1"
         id="stop219" />
    </linearGradient>
    <linearGradient
       id="linearGradient215">
      <stop
         style="stop-color:#729fcf;stop-opacity:1"
         offset="0"
         id="stop215" />
      <stop
         style="stop-color:#3465a4;stop-opacity:1"
         offset="0.25386173"
         id="stop217" />
      <stop
         style="stop-color:#729fcf;stop-opacity:1"
         offset="1"
         id="stop216" />
    </linearGradient>
    <linearGradient
       id="linearGradient5">
      <stop
         style="stop-color:#ef2929;stop-opacity:1;"
         offset="0"
         id="stop19" />
      <stop
         style="stop-color:#ef2929;stop-opacity:0;"
         offset="1"
         id="stop20" />
    </linearGradient>
    <linearGradient
       id="swatch18">
      <stop
         style="stop-color:#ef2929;stop-opacity:1;"
         offset="0"
         id="stop18" />
    </linearGradient>
    <linearGradient
       id="swatch15">
      <stop
         style="stop-color:#3d0000;stop-opacity:1;"
         offset="0"
         id="stop15" />
    </linearGradient>
    <linearGradient
       id="linearGradient5-1">
      <stop
         style="stop-color:#ef2929;stop-opacity:1;"
         offset="0"
         id="stop5" />
      <stop
         style="stop-color:#ef2929;stop-opacity:0;"
         offset="1"
         id="stop6" />
    </linearGradient>
    <linearGradient
       id="linearGradient3836-9">
      <stop
         style="stop-color:#a40000;stop-opacity:1"
         offset="0"
         id="stop3838-8" />
      <stop
         style="stop-color:#ef2929;stop-opacity:1"
         offset="1"
         id="stop3840-1" />
    </linearGradient>
    <linearGradient
       xlink:href="#linearGradient215"
       id="linearGradient216"
       x1="5.8779364"
       y1="16.072294"
       x2="13.689331"
       y2="20.058664"
       gradientUnits="userSpaceOnUse" />
    <linearGradient
       xlink:href="#linearGradient215"
       id="linearGradient217"
       gradientUnits="userSpaceOnUse"
       x1="55.76329"
       y1="44.857956"
       x2="62.708237"
       y2="48.517567" />
    <linearGradient
       xlink:href="#linearGradient218"
       id="linearGradient219"
       x1="29.277342"
       y1="48.85054"
       x2="42.365051"
       y2="44.925137"
       gradientUnits="userSpaceOnUse" />
    <linearGradient
       xlink:href="#linearGradient218"
       id="linearGradient220"
       gradientUnits="userSpaceOnUse"
       x1="7.4294863"
       y1="35.301392"
       x2="14.412683"
       y2="26.888073" />
    <linearGradient
       xlink:href="#linearGradient229"
       id="linearGradient227"
       x1="14.493698"
       y1="46.43906"
       x2="30.540874"
       y2="34.462219"
       gradientUnits="userSpaceOnUse" />
  </defs>
  <metadata
     id="metadata2874">
    <rdf:RDF>
      <cc:Work
         rdf:about="">
        <dc:format>image/svg+xml</dc:format>
        <dc:type
           rdf:resource="http://purl.org/dc/dcmitype/StillImage" />
        <dc:creator>
          <cc:Agent>
            <dc:title>[maxwxyz]</dc:title>
          </cc:Agent>
        </dc:creator>
        <dc:relation>https://www.freecad.org/wiki/index.php?title=Artwork</dc:relation>
        <dc:publisher>
          <cc:Agent>
            <dc:title>FreeCAD</dc:title>
          </cc:Agent>
        </dc:publisher>
        <dc:identifier>FreeCAD/src/</dc:identifier>
        <dc:rights>
          <cc:Agent>
            <dc:title>FreeCAD LGPL2+</dc:title>
          </cc:Agent>
        </dc:rights>
        <dc:date>2024</dc:date>
      </cc:Work>
    </rdf:RDF>
  </metadata>
  <g
     id="layer3"
     style="display:inline">
    <path
       d="m 26.103374,37.774719 c -2.395717,0.612399 -8.079176,2.389802 -11.609667,6.156104 -0.758959,0.809651 -0.915692,1.271705 -0.99427,1.595821 -0.05181,0.21396 -0.157609,0.786286 0,0.975225 0.01653,0.01975 0.04386,0.03696 0.07207,0.05356 0.01365,0.0079 0.02817,0.01609 0.0462,0.02217 0.202687,0.06923 0.671105,-0.0705 0.875991,-0.138537 2.109991,-0.700789 4.588492,-2.161188 7.850663,-4.333099 v 0 c -2.474813,1.693924 -5.041089,3.263503 -7.850663,4.333099 -0.225535,0.0749 -0.67407,0.205887 -0.875991,0.138537 -0.0076,-0.0026 -0.01911,-0.0026 -0.02587,-0.0056 1.532498,0.772037 3.050589,1.537466 4.705223,2.009615 0.05936,-0.0044 0.119668,-0.01407 0.188505,-0.0314 0.0463,-0.01195 0.08749,-0.02573 0.12567,-0.03879 0.03792,-0.01307 0.07452,-0.02505 0.109037,-0.03879 l -0.131214,-0.01847 c -0.0076,-9.46e-4 -0.0082,-0.0061 -0.01294,-0.0093 -0.0035,-0.0026 -0.01084,-0.0052 -0.01293,-0.0093 -0.0065,-0.01379 -0.0093,-0.03428 -0.0093,-0.06465 0,-0.06974 9.47e-4,-0.186795 0.07946,-0.406344 0.422534,-1.180692 4.779806,-4.521845 11.999614,-7.347429 -1.464896,-1.017585 -2.992057,-1.940344 -4.529656,-2.842558 z"
       style="font-size:12px;font-family:'Sans Serif';fill:url(#linearGradient227);fill-opacity:1;fill-rule:evenodd;stroke:#0b1523;stroke-width:1;stroke-linecap:square;stroke-linejoin:round;stroke-dasharray:none;stroke-opacity:1"
       id="path212" />
    <path
       d="m 62.250061,39.89694 c -1.141938,0.739065 -1.560974,1.001171 -1.988538,1.267053 -0.427565,0.265883 -0.864115,0.535983 -1.304749,0.784982 -0.440632,0.249083 -0.88375,0.477221 -1.142116,0.598433 -0.258367,0.121217 -0.33095,0.135027 -0.373313,0.138526 -0.04236,0.0036 -0.0544,-0.0023 -0.06653,-0.0093 -0.01206,-0.0069 -0.02463,-0.01437 -0.01848,-0.03879 0.0019,-0.0076 0.0044,-0.01783 0.01479,-0.0314 -0.277328,0.363544 -0.549189,0.733197 -0.816854,1.108209 -0.267943,0.375428 -0.532357,0.758666 -0.79098,1.143303 -0.515418,0.766304 -1.012138,1.549112 -1.498797,2.338322 -0.0019,0.003 -0.0037,0.0061 -0.0056,0.0093 -0.882121,1.430055 -1.730133,2.882983 -2.613192,4.312783 -0.0023,0.0037 0.0012,0.0026 0,0.0056 -0.0066,0.01596 -0.0028,0.02471 0.0056,0.02955 0.01205,0.007 0.02264,0.01465 0.09055,-0.0037 0.0679,-0.01827 0.192775,-0.0629 0.698576,-0.326921 0.505801,-0.263937 1.393984,-0.748461 2.295321,-1.26336 0.901423,-0.514897 1.816092,-1.059155 2.712988,-1.595821 0.896897,-0.536666 1.775185,-1.06574 4.197,-2.543341 z"
       style="font-size:12px;font-family:'Sans Serif';fill:url(#linearGradient217);fill-opacity:1;fill-rule:evenodd;stroke:#0b1523;stroke-width:1;stroke-linecap:square;stroke-linejoin:round;stroke-dasharray:none;stroke-opacity:1;font-variation-settings:normal;opacity:1;vector-effect:none;stroke-miterlimit:4;stroke-dashoffset:0;-inkscape-stroke:none;stop-color:#000000;stop-opacity:1"
       id="path203" />
    <path
       d="m 61.645738,45.82032 c -2.42182,1.477605 -3.300103,2.006675 -4.197001,2.543341 -0.896897,0.536667 -1.811563,1.080923 -2.712987,1.595822 -0.90134,0.514899 -1.78952,0.999422 -2.295321,1.263359 -0.505803,0.264024 -0.630676,0.308651 -0.698577,0.326922 -0.06791,0.01835 -0.07851,0.0107 -0.09055,0.0037 -0.0064,-0.0037 -0.01293,-0.0064 -0.01293,-0.01478 v 1.165467 c 0,0.05915 0.0065,0.103078 0.01293,0.134832 0.0075,0.03756 0.01419,0.05992 0.03511,0.07203 0.01281,0.0074 0.02982,0.01014 0.05544,0.01108 0.06799,0.0026 0.192774,-0.01324 0.698577,-0.249347 0.505801,-0.23611 1.393981,-0.6928 2.295321,-1.202408 0.901424,-0.509692 1.81609,-1.071347 2.712987,-1.627221 0.896898,-0.555786 1.775181,-1.105372 4.197001,-2.628304 z"
       style="font-size:12px;font-family:'Sans Serif';fill:#729fcf;fill-opacity:1;fill-rule:evenodd;stroke:#0b1523;stroke-width:1;stroke-linecap:square;stroke-linejoin:round;stroke-dasharray:none;stroke-opacity:1"
       id="path204" />
    <path
       d="m 12.364713,11.113044 c -0.03947,0.02554 -0.03061,0.01991 -0.06838,0.04433 -1.055009,0.68224 -1.50737,0.966015 -1.920159,1.222725 -0.4275648,0.2659 -0.8641146,0.535984 -1.3047476,0.784982 -0.4406328,0.249084 -0.8855974,0.47722 -1.1439643,0.598434 -0.2582814,0.121211 -0.3310349,0.135025 -0.3733131,0.138525 -0.042364,0.0036 -0.054487,-0.0041 -0.066531,-0.01108 -0.012129,-0.0069 -0.022782,-0.01437 -0.016633,-0.03878 0.00188,-0.0076 0.00446,-0.01598 0.014785,-0.02955 -0.5551683,0.727873 -1.090673,1.48039 -1.6078337,2.249665 -0.5175023,0.769274 -1.0157925,1.555235 -1.5043408,2.347557 -0.8785426,1.424394 -1.7227297,2.871751 -2.6021032,4.296158 -0.00825,0.01021 -0.00799,0.0139 -0.011089,0.02031 -0.00459,0.0093 -0.00649,0.01681 -0.00554,0.02217 -0.00109,-0.002 -0.0037,-0.0029 -0.0037,-0.0056 l 0.00185,1.337239 c 0.00135,-0.0061 0.00553,-0.01574 0.011088,-0.03694 0.012043,-0.04644 0.024417,-0.132235 0.092404,-0.289982 0.067902,-0.157646 0.1927753,-0.386914 0.6985764,-0.836682 0.5058011,-0.449853 1.3920506,-1.119976 2.293473,-1.669702 0.9014227,-0.549726 1.8179406,-0.980078 2.7148363,-1.388956 0.8968105,-0.40888 1.7751849,-0.796724 4.196999,-1.577352 v -1.254124 z"
       style="font-size:12px;font-family:'Sans Serif';fill:url(#linearGradient216);fill-opacity:1;fill-rule:evenodd;stroke:#0b1523;stroke-width:1;stroke-linecap:square;stroke-linejoin:round;stroke-dasharray:none;stroke-opacity:1"
       id="path206" />
    <path
       d="M 11.760389,18.290548 C 9.338579,19.071174 8.4601981,19.459021 7.5633894,19.8679 6.6664954,20.276778 5.7499739,20.707132 4.8485531,21.256856 3.9471324,21.806581 3.0608801,22.476706 2.55508,22.926558 2.04928,23.376325 1.9244053,23.605594 1.856504,23.763256 1.788517,23.921003 1.776143,24.0068 1.7641,24.053238 c -0.00607,0.02313 -0.010475,0.03531 -0.011089,0.04063 v 0.0019 0.0019 l 0.197745,0.116362 -0.00185,-0.0074 c -0.00384,-0.0098 -0.0037,-0.02523 -0.0037,-0.04802 0,-0.03283 0.019868,-0.122989 0.031417,-0.193937 0.00725,-0.04452 -7.191e-4,-0.05706 0.018481,-0.121903 0.04988,-0.168075 0.1504161,-0.409788 0.632045,-0.873638 0.481714,-0.46387 1.3448323,-1.148834 2.2417263,-1.701206 0.8968086,-0.552285 1.8272459,-0.973099 2.7407095,-1.372332 0.2195046,-0.09595 0.4383294,-0.191134 0.678247,-0.289982 0.1371338,-0.05648 0.3455528,-0.128248 0.500831,-0.188396 0.2281075,-0.08835 0.4571207,-0.177328 0.7466262,-0.278899 0.096249,-0.03372 0.203671,-0.06963 0.3086301,-0.10528 0.3953029,-0.134387 0.8729879,-0.286742 1.4248729,-0.456213 0.22014,-0.0676 0.390465,-0.124923 0.641285,-0.199477 z"
       style="font-size:12px;font-family:'Sans Serif';fill:#729fcf;fill-opacity:1;fill-rule:evenodd;stroke:#0b1523;stroke-width:1;stroke-linecap:square;stroke-linejoin:round;stroke-dasharray:none;stroke-opacity:1"
       id="path207" />
    <path
       d="m 30.63303,40.617276 c -1.418984,0.555343 -2.282059,0.950896 -3.154681,1.357557 -1.439397,0.670853 -2.903905,1.372207 -4.317126,2.231195 -1.413201,0.859075 -2.774579,1.87678 -3.533537,2.547035 -0.758957,0.670256 -0.915692,0.992094 -0.99427,1.211643 -0.07849,0.219549 -0.07946,0.336603 -0.07946,0.406343 0,0.03121 0.0022,0.05092 0.0093,0.06465 0.0025,0.0052 0.0082,0.0061 0.01294,0.0093 0.0111,0.0084 0.02441,0.0136 0.05729,0.0093 -0.01819,0.0025 -0.03368,0.0013 -0.04435,0 l 32.895906,4.340487 -0.0019,-0.0019 0.0074,0.0019 h -0.0056 l 0.157098,-1.266158 2.616892,-4.322972 0.0056,-0.0093 C 46.38766,45.007533 38.51,42.81564 30.633101,40.617292 Z"
       style="font-size:12px;font-family:'Sans Serif';fill:#729fcf;fill-opacity:1;fill-rule:evenodd;stroke:#0b1523;stroke-width:1;stroke-linecap:square;stroke-linejoin:round;stroke-dasharray:none;stroke-opacity:1"
       id="path210" />
    <path
       d="m 8.297079,19.616706 c -0.2169953,0.09008 -0.48613,0.190876 -0.6874875,0.278899 -0.9134636,0.399233 -1.8439009,0.820047 -2.7407095,1.372332 -0.896894,0.552372 -1.7600123,1.237336 -2.2417267,1.701103 -0.4816289,0.46385 -0.5821653,0.705563 -0.6320449,0.873638 -0.0192,0.06483 -0.011233,0.07737 -0.018481,0.121903 -0.01155,0.07094 -0.031417,0.161105 -0.031417,0.193936 0,0.02561 0.00375,0.03491 0.00924,0.04432 0.00163,0.0028 9.613e-4,0.01135 0.0037,0.01293 -0.00367,-0.0022 -0.00753,-0.0048 -0.00924,-0.0093 l 0.0037,0.0074 7.5475777,18.992864 c -0.00555,-0.01384 -0.00554,-0.03403 -0.00554,-0.0628 0,-1.552166 5.3979399,-5.139116 12.0791269,-7.753817 -1.727343,-2.049412 -3.454773,-4.098934 -5.18203,-6.150562 -2.533901,-3.009629 -5.06726,-6.023434 -7.6011711,-9.035603 v -0.0019 c -0.035785,-0.04234 -0.0715,-0.08482 -0.1072374,-0.127306 -0.1285817,-0.15285 -0.2576684,-0.305214 -0.3862497,-0.45806 z"
       style="font-size:12px;font-family:'Sans Serif';fill:#729fcf;fill-opacity:1;fill-rule:evenodd;stroke:#0b1523;stroke-width:1;stroke-linecap:round;stroke-linejoin:round;stroke-dasharray:none;stroke-opacity:1"
       id="path209" />
    <path
       d="m 11.910084,18.377358 -0.720753,0.243806 -2.6686338,0.905038 c -0.074629,0.03008 -0.1530598,0.06121 -0.2236182,0.0905 0.1285813,0.152846 0.257668,0.30521 0.3862497,0.45806 0.035737,0.04248 0.071452,0.08496 0.1071889,0.127443 v 0.0019 c 0.032641,0.0388 0.065308,0.07756 0.097948,0.116362 0.6845652,-0.409221 1.5884294,-0.949674 3.0216174,-1.802688 z"
       style="font-size:12px;font-family:'Sans Serif';fill:#729fcf;fill-opacity:1;fill-rule:evenodd;stroke:#0b1523;stroke-width:1;stroke-linecap:round;stroke-linejoin:round;stroke-dasharray:none;stroke-opacity:1"
       id="path208" />
    <path
       d="m 57.371118,42.606513 c -0.01042,0.01357 -0.01291,0.0238 -0.01479,0.0314 -0.0062,0.02442 0.0064,0.03187 0.01848,0.03879 0.01213,0.007 0.02417,0.01282 0.06653,0.0093 0.04236,-0.0035 0.114945,-0.01731 0.373313,-0.138526 0.258367,-0.121212 0.701482,-0.349349 1.142116,-0.598433 0.440634,-0.248999 0.877182,-0.519098 1.304748,-0.784982 0.412789,-0.256694 0.865148,-0.540474 1.920159,-1.222725 l 0.0074,-0.07757 c -1.28082,0.658912 -1.734734,0.89844 -2.195525,1.145149 -0.46079,0.246712 -0.928609,0.499361 -1.36019,0.753583 -0.431579,0.254292 -0.826751,0.510344 -1.036776,0.659385 -0.145026,0.102946 -0.202405,0.154399 -0.225466,0.184702 z"
       style="font-size:12px;font-family:'Sans Serif';fill:#729fcf;fill-opacity:1;fill-rule:evenodd;stroke:#0b1523;stroke-width:1;stroke-linecap:round;stroke-linejoin:round;stroke-dasharray:none;stroke-opacity:1"
       id="path201" />
    <path
       d="m 12.303726,11.077951 c -1.280818,0.658904 -1.734819,0.900303 -2.195524,1.146997 -0.4607907,0.24678 -0.9286102,0.499377 -1.3601903,0.753583 -0.4315803,0.254291 -0.8267506,0.510343 -1.0367756,0.659384 -0.1450275,0.102941 -0.2023198,0.154403 -0.2254662,0.184702 -0.010332,0.01357 -0.012902,0.02199 -0.014785,0.02955 -0.00615,0.02442 0.0045,0.03188 0.016633,0.03878 0.012043,0.007 0.024167,0.01468 0.066531,0.01108 0.042278,-0.0035 0.1150312,-0.01731 0.3733131,-0.138525 0.2583675,-0.121203 0.7033307,-0.349339 1.1439644,-0.598423 0.4406338,-0.248999 0.877182,-0.519081 1.3047476,-0.784982 0.41279,-0.256711 0.865148,-0.540484 1.92016,-1.222724 z"
       style="font-size:12px;font-family:'Sans Serif';fill:#729fcf;fill-opacity:1;fill-rule:evenodd;stroke:#0b1523;stroke-width:1;stroke-linecap:round;stroke-linejoin:round;stroke-dasharray:none;stroke-opacity:1"
       id="path205" />
    <path
       d="m 21.573719,35.390221 c -6.60219,2.560244 -10.830569,5.676561 -11.7575681,6.911641 -0.1439384,0.191955 -0.2028101,0.326122 -0.2420991,0.435895 -0.078493,0.219549 -0.079467,0.336689 -0.079467,0.406344 0,0.02969 0.00135,0.04901 0.00739,0.0628 0.00811,0.0186 0.027038,0.02447 0.072075,0.01847 0.078578,-0.0105 0.2353101,-0.05367 0.9942692,-0.44513 1.691853,-0.872649 3.786503,-2.045626 7.850663,-4.480861 v 0 c -3.571811,2.140221 -5.892783,3.470997 -7.850663,4.480861 -0.7589591,0.391466 -0.9156915,0.434634 -0.9942692,0.44513 -0.044157,0.0058 -0.063616,0.0011 -0.072075,-0.01662 0.061837,0.12975 0.1316223,0.256494 0.2088336,0.373098 0.4611416,0.662249 1.6569326,1.487398 3.3357926,2.613527 0.168088,0.113445 0.334629,0.225173 0.495287,0.34724 -0.01699,-0.01297 -0.03071,-0.02655 -0.0425,-0.04064 -0.03332,-0.04003 -0.05183,-0.08056 -0.06284,-0.12375 -9.46e-4,-0.0038 -10e-4,-0.0092 -0.0019,-0.01293 -0.01174,-0.05493 -0.01479,-0.11625 -0.01479,-0.190243 0,-0.139396 9.47e-4,-0.324186 0.07947,-0.648302 1.706013,-4.153856 9.479218,-6.953178 12.603937,-7.751926 -0.153415,-0.09059 -0.306759,-0.179038 -0.460173,-0.26597 -1.358908,-0.768385 -2.201798,-1.221289 -3.398628,-1.7953 -0.223691,-0.107495 -0.447163,-0.214306 -0.670854,-0.323228 z"
       style="font-size:12px;font-family:'Sans Serif';fill:url(#linearGradient227);fill-opacity:1;fill-rule:evenodd;stroke:#0b1523;stroke-width:1;stroke-linecap:square;stroke-linejoin:round;stroke-dasharray:none;stroke-opacity:1;opacity:1;font-variation-settings:normal;vector-effect:none;stroke-miterlimit:4;stroke-dashoffset:0;-inkscape-stroke:none;stop-color:#000000;stop-opacity:1"
       id="path211" />
    <path
       d="m 30.697266,41.673828 c 7.342739,2.049126 14.68666,4.092036 22.029296,6.132813 l -2.048828,3.386718 -0.06055,0.478516 -30.476562,-4.029297 c 0.05217,-0.0482 0.08535,-0.08295 0.148437,-0.138672 0.707854,-0.625123 2.021577,-1.609937 3.392579,-2.443359 1.364512,-0.829382 2.784944,-1.511441 4.21875,-2.179688 0.792126,-0.369148 1.612224,-0.734874 2.796875,-1.207031 z"
       style="font-size:12px;font-family:'Sans Serif';fill:url(#linearGradient219);fill-opacity:1;fill-rule:evenodd;stroke:#729fcf;stroke-width:1;stroke-linecap:square;stroke-linejoin:round;stroke-dasharray:none;stroke-opacity:1"
       id="path213" />
    <path
       d="m 8,20.816406 0.025391,0.03125 c 2.5337864,3.012021 5.0674764,6.027261 7.6015624,9.03711 1.43124,1.70002 2.863779,3.397592 4.294922,5.095703 -4.405224,1.841135 -8.325835,4.0953 -10.2207031,6.029297 C 7.4702346,35.402819 5.2124573,29.743804 3.03125,24.181641 c 0.00355,-0.0071 0.00613,-0.01426 0.00977,-0.02148 C 3.1457672,23.952301 3.2603893,23.763045 3.3476563,23.664062 3.7782205,23.254254 4.5636482,22.629655 5.3925781,22.119141 6.2249167,21.606558 7.0963875,21.211431 8,20.816406 Z"
       style="font-size:12px;font-family:'Sans Serif';fill:url(#linearGradient220);fill-opacity:1;fill-rule:evenodd;stroke:#729fcf;stroke-width:1;stroke-linecap:square;stroke-linejoin:round;stroke-dasharray:none;stroke-opacity:1;font-variation-settings:normal;opacity:1;vector-effect:none;stroke-miterlimit:4;stroke-dashoffset:0;-inkscape-stroke:none;stop-color:#000000;stop-opacity:1"
       id="path214" />
  </g>
</svg>
